<?xml version="1.0" encoding="utf-8"?>
<!-- Generator: Adobe Illustrator 17.0.0, SVG Export Plug-In . SVG Version: 6.00 Build 0)  -->
<!DOCTYPE svg PUBLIC "-//W3C//DTD SVG 1.1//EN" "http://www.w3.org/Graphics/SVG/1.1/DTD/svg11.dtd">
<svg version="1.1" id="Layer_1" xmlns="http://www.w3.org/2000/svg" xmlns:xlink="http://www.w3.org/1999/xlink" x="0px" y="0px"
	 width="468px" height="479px" viewBox="0 0 468 479" enable-background="new 0 0 468 479" xml:space="preserve">
<g>
	<g enable-background="new    ">
		<path fill="#FFFFFF" d="M13.233,470.152c-0.74-0.689-1.11-1.577-1.11-2.664v-96.064c0-1.084,0.37-1.998,1.11-2.738
			s1.651-1.11,2.738-1.11h16.726c2.465,0,4.242,1.088,5.329,3.257l25.459,45.59l25.607-45.59c1.085-2.169,2.861-3.257,5.329-3.257
			h16.726c1.085,0,1.999,0.37,2.738,1.11c0.74,0.74,1.11,1.654,1.11,2.738v96.064c0,1.087-0.37,1.975-1.11,2.664
			c-0.74,0.691-1.653,1.036-2.738,1.036H92.349c-0.987,0-1.85-0.37-2.59-1.11c-0.74-0.74-1.11-1.603-1.11-2.59v-53.879
			l-15.986,29.308c-1.283,2.271-3.011,3.404-5.18,3.404h-7.993c-1.975,0-3.701-1.133-5.181-3.404L38.47,413.609v53.879
			c0,1.087-0.37,1.975-1.11,2.664c-0.74,0.691-1.653,1.036-2.738,1.036h-18.65C14.884,471.188,13.973,470.844,13.233,470.152z"/>
		<path fill="#FFFFFF" d="M141.194,462.974c-6.908-6.462-10.46-15.861-10.657-28.197v-4.589
			c0.393-11.742,4.045-20.919,10.954-27.531c6.906-6.61,16.231-9.917,27.975-9.917c8.486,0,15.665,1.702,21.537,5.106
			c5.87,3.404,10.262,8.092,13.173,14.062c2.91,5.972,4.367,12.755,4.367,20.353v3.7c0,1.087-0.37,1.998-1.11,2.738
			c-0.74,0.74-1.653,1.11-2.738,1.11h-46.922v0.888c0.097,4.441,1.133,8.019,3.108,10.731c1.973,2.716,4.785,4.071,8.437,4.071
			c2.369,0,4.267-0.468,5.699-1.406c1.429-0.938,2.787-2.146,4.071-3.627c0.888-0.985,1.603-1.603,2.146-1.851
			c0.542-0.245,1.406-0.369,2.59-0.369h19.391c0.888,0,1.651,0.272,2.294,0.813c0.641,0.544,0.962,1.21,0.962,1.998
			c0,2.567-1.457,5.576-4.367,9.029c-2.912,3.455-7.156,6.416-12.729,8.881c-5.576,2.466-12.163,3.701-19.76,3.701
			C157.573,472.669,148.1,469.438,141.194,462.974z M181.307,424.711v-0.296c0-4.737-1.036-8.412-3.108-11.027
			c-2.072-2.614-4.984-3.923-8.733-3.923c-3.751,0-6.638,1.309-8.659,3.923c-2.024,2.615-3.035,6.29-3.035,11.027v0.296H181.307z"/>
		<path fill="#FFFFFF" d="M228.153,463.64c-5.477-6.018-8.414-14.604-8.807-25.755l-0.148-5.181l0.148-5.329
			c0.393-10.755,3.354-19.217,8.881-25.385c5.525-6.166,13.025-9.251,22.499-9.251c8.881,0,16.034,2.862,21.462,8.585v-31.528
			c0-1.085,0.371-1.973,1.111-2.664c0.739-0.689,1.602-1.036,2.59-1.036h19.094c1.085,0,1.998,0.347,2.738,1.036
			c0.74,0.691,1.111,1.579,1.111,2.664v97.692c0,1.087-0.371,1.975-1.111,2.664c-0.74,0.691-1.653,1.036-2.738,1.036h-17.613
			c-0.988,0-1.851-0.37-2.591-1.11s-1.11-1.603-1.11-2.59v-4.589c-5.328,6.513-12.977,9.77-22.942,9.77
			C241.152,472.669,233.629,469.66,228.153,463.64z M268.783,448.023c2.072-2.713,3.206-6.143,3.404-10.287
			c0.197-2.762,0.297-4.637,0.297-5.625c0-1.084-0.1-2.909-0.297-5.477c-0.198-3.849-1.357-7.03-3.479-9.547
			c-2.123-2.517-5.254-3.774-9.398-3.774c-4.44,0-7.623,1.309-9.547,3.922c-1.925,2.616-3.035,6.242-3.33,10.88l-0.148,4.589
			l0.148,4.588c0.295,4.64,1.405,8.267,3.33,10.88c1.924,2.615,5.106,3.922,9.547,3.922
			C263.553,452.094,266.711,450.739,268.783,448.023z"/>
		<path fill="#FFFFFF" d="M321.994,463.64c-5.477-6.018-8.414-14.604-8.807-25.755l-0.148-5.181l0.148-5.329
			c0.393-10.755,3.354-19.217,8.881-25.385c5.525-6.166,13.025-9.251,22.498-9.251c8.881,0,16.035,2.862,21.463,8.585v-31.528
			c0-1.085,0.37-1.973,1.11-2.664c0.739-0.689,1.603-1.036,2.591-1.036h19.094c1.084,0,1.998,0.347,2.738,1.036
			c0.74,0.691,1.11,1.579,1.11,2.664v97.692c0,1.087-0.37,1.975-1.11,2.664c-0.74,0.691-1.654,1.036-2.738,1.036H371.21
			c-0.987,0-1.851-0.37-2.591-1.11s-1.109-1.603-1.109-2.59v-4.589c-5.329,6.513-12.977,9.77-22.943,9.77
			C334.994,472.669,327.471,469.66,321.994,463.64z M362.625,448.023c2.072-2.713,3.205-6.143,3.404-10.287
			c0.197-2.762,0.296-4.637,0.296-5.625c0-1.084-0.099-2.909-0.296-5.477c-0.199-3.849-1.357-7.03-3.479-9.547
			c-2.123-2.517-5.254-3.774-9.398-3.774c-4.441,0-7.623,1.309-9.548,3.922c-1.925,2.616-3.034,6.242-3.33,10.88l-0.148,4.589
			l0.148,4.588c0.296,4.64,1.405,8.267,3.33,10.88c1.925,2.615,5.106,3.922,9.548,3.922
			C357.394,452.094,360.553,450.739,362.625,448.023z"/>
		<path fill="#FFFFFF" d="M410.655,470.078c-0.74-0.74-1.11-1.603-1.11-2.59v-69.421c0-1.085,0.345-1.998,1.036-2.738
			c0.689-0.74,1.577-1.11,2.665-1.11h18.058c1.085,0,1.998,0.37,2.738,1.11s1.11,1.653,1.11,2.738v5.625
			c2.762-3.058,5.994-5.403,9.695-7.031c3.7-1.628,7.819-2.442,12.359-2.442h6.66c1.085,0,1.973,0.347,2.665,1.036
			c0.688,0.691,1.036,1.58,1.036,2.664v16.135c0,0.987-0.348,1.85-1.036,2.59c-0.692,0.74-1.58,1.11-2.665,1.11h-14.949
			c-3.948,0-6.982,1.087-9.104,3.257c-2.123,2.171-3.182,5.231-3.182,9.177v37.301c0,1.087-0.371,1.975-1.111,2.664
			c-0.739,0.691-1.652,1.036-2.738,1.036h-19.537C412.258,471.188,411.395,470.818,410.655,470.078z"/>
	</g>
	<g>
		<path fill="#2A2333" d="M107.72,4.042L107.72,4.042c-21.188,0-38.526,17.336-38.526,38.521v179.78
			c0,21.188,17.338,38.521,38.526,38.521l0,0c21.19,0,38.524-17.333,38.524-38.521V42.564C146.244,21.378,128.91,4.042,107.72,4.042
			z"/>
		<path fill="#FFFFFF" d="M361.907,183.801L361.907,183.801c-21.19,0-38.526,17.333-38.526,38.524v0.015
			c0,21.188,17.336,38.521,38.526,38.521l0,0c21.188,0,38.521-17.333,38.521-38.521v-0.015
			C400.429,201.134,383.095,183.801,361.907,183.801z"/>
		
			<linearGradient id="SVGID_1_" gradientUnits="userSpaceOnUse" x1="-124.7917" y1="477.9666" x2="206.4129" y2="477.9666" gradientTransform="matrix(1 0 0 -1 194 584)">
			<stop  offset="0" style="stop-color:#3FB9E5"/>
			<stop  offset="1" style="stop-color:#64C4B9"/>
		</linearGradient>
		<path fill="url(#SVGID_1_)" d="M80.449,15.231l-0.005,0.003c-14.981,14.984-14.981,39.496,0,54.48L207.699,196.96
			c14.996,14.86,39.411,14.818,54.353-0.124L389.176,69.711c14.984-14.984,14.981-39.496,0-54.48h-0.003
			c-14.984-14.984-39.494-14.984-54.476,0l-87.699,87.697c-3.313,2.694-7.537,4.317-12.117,4.317h-0.005
			c-5.172,0-9.884-2.066-13.349-5.413l-86.603-86.601C119.945,0.249,95.433,0.249,80.449,15.231z"/>
	</g>
</g>
</svg>
