<?xml version="1.0" encoding="utf-8"?>
<!-- Generator: Adobe Illustrator 17.0.0, SVG Export Plug-In . SVG Version: 6.00 Build 0)  -->
<!DOCTYPE svg PUBLIC "-//W3C//DTD SVG 1.1//EN" "http://www.w3.org/Graphics/SVG/1.1/DTD/svg11.dtd">
<svg version="1.1" id="Layer_1" xmlns="http://www.w3.org/2000/svg" xmlns:xlink="http://www.w3.org/1999/xlink" x="0px" y="0px"
	 width="960px" height="560px" viewBox="0 0 960 560" enable-background="new 0 0 960 560" xml:space="preserve">
<g id="Layer_3_copy">
	<g id="Replace_Brand_Name_7_">
		<g enable-background="new    ">
			<path fill="#2A2333" d="M256.585,498.362c-0.735-0.685-1.102-1.567-1.102-2.645v-95.422c0-1.077,0.367-1.984,1.102-2.719
				c0.736-0.736,1.641-1.104,2.72-1.104h16.615c2.448,0,4.213,1.08,5.292,3.236l25.289,45.284l25.436-45.284
				c1.077-2.156,2.842-3.236,5.293-3.236h16.614c1.077,0,1.984,0.367,2.72,1.104c0.735,0.735,1.103,1.642,1.103,2.719v95.422
				c0,1.079-0.368,1.961-1.103,2.645c-0.736,0.688-1.643,1.03-2.72,1.03h-18.673c-0.98,0-1.838-0.367-2.572-1.102
				c-0.736-0.736-1.103-1.592-1.103-2.573v-53.518l-15.879,29.112c-1.275,2.256-2.991,3.382-5.146,3.382h-7.94
				c-1.962,0-3.675-1.126-5.146-3.382l-15.732-29.112v53.518c0,1.079-0.367,1.961-1.102,2.645c-0.736,0.688-1.643,1.03-2.72,1.03
				h-18.526C258.225,499.392,257.32,499.05,256.585,498.362z"/>
			<path fill="#2A2333" d="M383.69,491.231c-6.862-6.418-10.391-15.754-10.586-28.008v-4.558
				c0.391-11.665,4.018-20.78,10.881-27.347c6.859-6.567,16.122-9.851,27.788-9.851c8.428,0,15.56,1.691,21.392,5.073
				c5.831,3.382,10.193,8.038,13.086,13.968c2.89,5.931,4.337,12.67,4.337,20.216v3.675c0,1.08-0.367,1.984-1.102,2.721
				c-0.736,0.735-1.643,1.102-2.72,1.102h-46.608v0.882c0.097,4.41,1.126,7.964,3.087,10.66c1.96,2.696,4.753,4.043,8.38,4.043
				c2.353,0,4.239-0.465,5.661-1.397c1.419-0.929,2.768-2.132,4.043-3.601c0.882-0.98,1.592-1.592,2.132-1.838
				c0.538-0.243,1.397-0.367,2.573-0.367h19.261c0.882,0,1.64,0.272,2.279,0.809c0.636,0.54,0.955,1.201,0.955,1.984
				c0,2.551-1.447,5.539-4.337,8.969c-2.893,3.432-7.108,6.372-12.644,8.822c-5.539,2.449-12.082,3.677-19.628,3.677
				C399.959,500.863,390.55,497.652,383.69,491.231z M423.535,453.226v-0.295c0-4.705-1.029-8.355-3.087-10.954
				c-2.059-2.595-4.951-3.897-8.675-3.897c-3.726,0-6.594,1.301-8.601,3.897c-2.01,2.598-3.014,6.248-3.014,10.954v0.295H423.535z"
				/>
			<path fill="#2A2333" d="M470.067,491.894c-5.441-5.978-8.358-14.505-8.749-25.584l-0.147-5.145l0.147-5.294
				c0.391-10.682,3.331-19.087,8.822-25.215c5.489-6.124,12.939-9.189,22.348-9.189c8.822,0,15.927,2.843,21.32,8.528v-31.317
				c0-1.077,0.367-1.959,1.102-2.647c0.735-0.685,1.592-1.028,2.573-1.028h18.967c1.077,0,1.984,0.344,2.721,1.028
				c0.735,0.688,1.102,1.57,1.102,2.647v97.039c0,1.079-0.367,1.961-1.102,2.645c-0.736,0.688-1.644,1.03-2.721,1.03h-17.496
				c-0.981,0-1.838-0.367-2.573-1.102c-0.736-0.736-1.104-1.592-1.104-2.573v-4.558c-5.292,6.468-12.889,9.704-22.789,9.704
				C482.98,500.863,475.507,497.874,470.067,491.894z M510.426,476.383c2.058-2.696,3.184-6.102,3.382-10.219
				c0.195-2.743,0.294-4.606,0.294-5.587c0-1.077-0.099-2.89-0.294-5.44c-0.198-3.823-1.349-6.983-3.456-9.483
				c-2.108-2.501-5.22-3.751-9.336-3.751c-4.41,0-7.572,1.302-9.483,3.897c-1.912,2.598-3.014,6.201-3.309,10.808l-0.146,4.558
				l0.146,4.558c0.295,4.608,1.397,8.211,3.309,10.806c1.911,2.598,5.073,3.897,9.483,3.897
				C505.229,480.425,508.368,479.08,510.426,476.383z"/>
			<path fill="#2A2333" d="M563.28,491.894c-5.44-5.978-8.357-14.505-8.748-25.584l-0.148-5.145l0.148-5.294
				c0.391-10.682,3.331-19.087,8.822-25.215c5.489-6.124,12.938-9.189,22.348-9.189c8.822,0,15.927,2.843,21.318,8.528v-31.317
				c0-1.077,0.367-1.959,1.104-2.647c0.735-0.685,1.592-1.028,2.573-1.028h18.967c1.077,0,1.984,0.344,2.719,1.028
				c0.735,0.688,1.102,1.57,1.102,2.647v97.039c0,1.079-0.367,1.961-1.102,2.645c-0.735,0.688-1.642,1.03-2.719,1.03h-17.497
				c-0.981,0-1.838-0.367-2.573-1.102c-0.735-0.736-1.102-1.592-1.102-2.573v-4.558c-5.294,6.468-12.891,9.704-22.789,9.704
				C576.193,500.863,568.72,497.874,563.28,491.894z M603.639,476.383c2.058-2.696,3.184-6.102,3.382-10.219
				c0.196-2.743,0.295-4.606,0.295-5.587c0-1.077-0.099-2.89-0.295-5.44c-0.198-3.823-1.349-6.983-3.456-9.483
				c-2.108-2.501-5.219-3.751-9.335-3.751c-4.412,0-7.572,1.302-9.484,3.897c-1.911,2.598-3.014,6.201-3.308,10.808l-0.148,4.558
				l0.148,4.558c0.294,4.608,1.397,8.211,3.308,10.806c1.912,2.598,5.073,3.897,9.484,3.897
				C598.442,480.425,601.581,479.08,603.639,476.383z"/>
			<path fill="#2A2333" d="M651.348,498.29c-0.736-0.736-1.104-1.592-1.104-2.573v-68.957c0-1.077,0.342-1.984,1.03-2.719
				c0.685-0.735,1.567-1.104,2.647-1.104h17.937c1.077,0,1.984,0.369,2.721,1.104c0.735,0.735,1.102,1.642,1.102,2.719v5.587
				c2.743-3.036,5.955-5.366,9.63-6.983c3.675-1.619,7.768-2.427,12.277-2.427h6.616c1.079,0,1.961,0.345,2.647,1.03
				c0.685,0.686,1.03,1.568,1.03,2.647v16.026c0,0.98-0.345,1.837-1.03,2.573c-0.686,0.735-1.568,1.102-2.647,1.102h-14.849
				c-3.922,0-6.936,1.08-9.043,3.234c-2.108,2.157-3.16,5.197-3.16,9.117v37.051c0,1.079-0.369,1.961-1.104,2.645
				c-0.735,0.688-1.642,1.03-2.719,1.03h-19.408C652.94,499.392,652.083,499.024,651.348,498.29z"/>
		</g>
	</g>
	<g>
		<path fill="#3758A6" d="M350.437,35.368L350.437,35.368c-21.046,0-38.268,17.219-38.268,38.263v178.577
			c0,21.046,17.223,38.263,38.268,38.263l0,0c21.049,0,38.266-17.218,38.266-38.263V73.632
			C388.702,52.589,371.485,35.368,350.437,35.368z"/>
		<path fill="#64C4B9" d="M602.923,213.925L602.923,213.925c-21.049,0-38.268,17.218-38.268,38.266v0.014
			c0,21.046,17.219,38.263,38.268,38.263l0,0c21.045,0,38.263-17.218,38.263-38.263v-0.016
			C641.187,231.141,623.969,213.925,602.923,213.925z"/>
		
			<linearGradient id="SVGID_1_" gradientUnits="userSpaceOnUse" x1="118.182" y1="528.3227" x2="447.1724" y2="528.3227" gradientTransform="matrix(1 0 0 -1 194 665)">
			<stop  offset="0" style="stop-color:#3FB9E5"/>
			<stop  offset="1" style="stop-color:#64C4B9"/>
		</linearGradient>
		<path fill="url(#SVGID_1_)" d="M323.348,46.482l-0.005,0.003c-14.882,14.883-14.882,39.233,0,54.116l126.403,126.394
			c14.896,14.761,39.147,14.719,53.989-0.122L630.01,100.598c14.883-14.883,14.882-39.233,0-54.116h-0.003
			c-14.883-14.883-39.229-14.883-54.111,0l-87.113,87.11c-3.291,2.677-7.487,4.288-12.036,4.288h-0.005
			c-5.138,0-9.818-2.051-13.26-5.378L377.458,46.48C362.579,31.602,338.232,31.602,323.348,46.482z"/>
	</g>
</g>
</svg>
